<?xml version="1.0" encoding="UTF-8"?><svg id="_레이어_2" xmlns="http://www.w3.org/2000/svg" viewBox="0 0 83.57 84.81"><g id="_레이어_1-2"><polygon points="38.99 55.94 23.48 74.55 31.57 51.72 8.08 57.65 28.05 43.93 5.56 34.93 29.78 35.57 16.87 15.06 36.09 29.81 37.7 5.64 44.58 28.87 60.1 10.26 52 33.1 75.49 27.16 55.52 40.88 78.02 49.89 53.8 49.25 66.7 69.75 47.48 55 45.87 79.18 38.99 55.94" style="fill:#fff;"/><path d="M38.33,11.28l4.76,16.09,1.06,3.58,2.39-2.87,10.74-12.89-5.6,15.81-1.25,3.52,3.62-.92,16.27-4.11-13.83,9.5-3.08,2.12,3.47,1.39,15.58,6.23-16.77-.44-3.74-.1,1.99,3.16,8.94,14.2-13.31-10.22-2.96-2.28-.25,3.73-1.12,16.74-4.76-16.09-1.06-3.58-2.39,2.87-10.74,12.89,5.6-15.81,1.25-3.52-3.62.92-16.27,4.11,13.83-9.5,3.08-2.12-3.47-1.39-15.58-6.23,16.77.44,3.74.1-1.99-3.16-8.94-14.2,13.31,10.22,2.96,2.28.25-3.73,1.12-16.74M37.08,0l-1.86,27.88L13.05,10.87l14.88,23.65-27.94-.74,25.94,10.39L2.91,59.99l27.09-6.85-9.33,26.34,17.89-21.46,7.93,26.8,1.86-27.88,22.17,17.02-14.88-23.65,27.94.74-25.94-10.39,23.03-15.82-27.09,6.85,9.33-26.34-17.89,21.46L37.08,0h0Z" style="fill:#3c3c3c;"/></g></svg>