<?xml version="1.0" encoding="UTF-8"?><svg id="_레이어_2" xmlns="http://www.w3.org/2000/svg" viewBox="0 0 207.75 148.48"><g id="_레이어_1-2"><polygon points="85.15 99.9 13.05 119.91 61.94 78.9 5.24 49.61 79.98 53.32 95.94 2.82 122.6 48.58 194.7 28.57 145.81 69.58 202.51 98.87 127.77 95.16 111.8 145.66 85.15 99.9" style="fill:#fff;"/><path d="M96.26,5.65l24.9,42.75.89,1.53,1.71-.47,66.14-18.36-43.51,36.5-2.65,2.22,3.07,1.59,50.46,26.06-68.56-3.4-1.77-.09-.53,1.69-14.92,47.17-24.9-42.75-.89-1.53-1.71.47-66.14,18.36,43.51-36.5,2.65-2.22-3.07-1.59L10.48,51.02l68.56,3.4,1.77.09.53-1.69,14.92-47.17M95.63,0l-16.48,52.12L0,48.2l59.88,30.93L8.24,122.44l76.36-21.2,27.52,47.24,16.48-52.12,79.15,3.93-59.88-30.93,51.63-43.31-76.36,21.2L95.63,0h0Z" style="fill:#3c3c3c;"/></g></svg>