<?xml version="1.0" encoding="UTF-8"?><svg id="_레이어_2" xmlns="http://www.w3.org/2000/svg" viewBox="0 0 123.5 96.75"><g id="_레이어_1-2"><polygon points="36.31 55.81 18.83 72.6 29.4 50.79 5.4 54.1 26.76 42.67 5.4 31.24 29.4 34.54 18.83 12.74 36.31 29.52 40.58 5.67 44.85 29.52 62.32 12.74 51.76 34.54 75.76 31.24 54.4 42.67 75.76 54.1 51.76 50.79 62.32 72.6 44.85 55.81 40.58 79.66 36.31 55.81" style="fill:#fff;"/><path d="M40.58,11.35l2.96,16.51.66,3.68,2.7-2.59,12.1-11.62-7.31,15.1-1.63,3.36,3.7-.51,16.62-2.29-14.79,7.92-3.3,1.76,3.3,1.76,14.79,7.92-16.62-2.29-3.7-.51,1.63,3.36,7.31,15.1-12.1-11.62-2.7-2.59-.66,3.68-2.96,16.51-2.96-16.51-.66-3.68-2.7,2.59-12.1,11.62,7.31-15.1,1.63-3.36-3.7.51-16.62,2.29,14.79-7.92,3.3-1.76-3.3-1.76-14.79-7.92,16.62,2.29,3.7.51-1.63-3.36-7.31-15.1,12.1,11.62,2.7,2.59.66-3.68,2.96-16.51M40.58,0l-4.93,27.51L15.5,8.15l12.18,25.15L0,29.48l24.64,13.19L0,55.85l27.68-3.82-12.18,25.15,20.15-19.36,4.93,27.51,4.93-27.51,20.15,19.36-12.18-25.15,27.68,3.82-24.64-13.19,24.64-13.19-27.68,3.82,12.18-25.15-20.15,19.36L40.58,0h0Z"/><circle cx="114.5" cy="58.75" r="8" style="fill:#fff;"/><path d="M114.5,51.75c3.86,0,7,3.14,7,7s-3.14,7-7,7-7-3.14-7-7,3.14-7,7-7M114.5,49.75c-4.97,0-9,4.03-9,9s4.03,9,9,9,9-4.03,9-9-4.03-9-9-9h0Z"/><circle cx="87" cy="91.25" r="4.5" style="fill:#3c3c3c;"/><path d="M87,87.75c1.93,0,3.5,1.57,3.5,3.5s-1.57,3.5-3.5,3.5-3.5-1.57-3.5-3.5,1.57-3.5,3.5-3.5M87,85.75c-3.04,0-5.5,2.46-5.5,5.5s2.46,5.5,5.5,5.5,5.5-2.46,5.5-5.5-2.46-5.5-5.5-5.5h0Z" style="fill:#3c3c3c;"/></g></svg>