<?xml version="1.0" encoding="UTF-8"?><svg id="_레이어_2" xmlns="http://www.w3.org/2000/svg" viewBox="0 0 1920 213"><g id="_레이어_1-2"><rect x="2" y="2" width="1916" height="209" style="fill:#f7ff13;"/><path d="M1916,4v205H4V4h1912M1920,0H0v213h1920V0h0Z" style="fill:#3c3c3c;"/><path d="M115.2,106.5s-.02,0-.03,0h0s.02,0,.03,0c13.44,0,24.34-10.9,24.34-24.34s-10.9-24.34-24.34-24.34-24.32,10.88-24.34,24.31h0c-.01-13.43-10.9-24.31-24.34-24.31s-24.34,10.9-24.34,24.34,10.88,24.32,24.31,24.34h0c-13.43.02-24.31,10.91-24.31,24.34s10.9,24.34,24.34,24.34,24.34-10.9,24.34-24.34c0,0,0-.02,0-.02h0s0,.02,0,.02c0,13.44,10.9,24.34,24.34,24.34s24.34-10.9,24.34-24.34-10.9-24.34-24.34-24.34Z" style="fill:#3c3c3c;"/><path d="M77.31,95.49c.72-1.52,1.72-2.7,3-3.53s3.11-1.25,5.49-1.25c2.63,0,4.97.71,6.99,2.14,2.02,1.42,3.04,3.26,3.04,5.5v12.82l.06,2.62c0,1.37.11,2.27.34,2.71s.89.71,1.99.83l1.25.06v.91h-17.65v-.91l.74-.06c1.02,0,1.64-.23,1.87-.68.22-.45.34-1.41.34-2.85l.06-2.62v-11.63l-.06-2.34c0-1.6-.26-2.74-.79-3.42-.53-.68-1.32-1.03-2.37-1.03-1.28,0-2.2.42-2.74,1.25-.55.83-.99,1.69-1.33,2.56v14.59l.06,2.62c0,1.48.1,2.44.31,2.88.21.44.84.65,1.89.65l.74.06v.91h-17.7v-.91l1.31-.06c1.1-.11,1.77-.38,1.99-.8.23-.42.34-1.33.34-2.74l.06-2.62v-28.16l-.06-2.34c0-1.03-.16-1.74-.48-2.14s-1.02-.65-2.08-.77l-2.16-.11v-.91h15.79v13.51c0,1.25-.02,2.31-.06,3.16-.04.85-.1,1.55-.17,2.08Z" style="fill:#fff;"/><path d="M114.99,115.21c0,.83-.03,1.72-.09,2.65-.06.93-.08,1.47-.08,1.62,0,2.85-1.5,5.56-4.49,8.12s-6.38,3.85-10.16,3.85c-2.68,0-4.89-.48-6.65-1.42-1.76-.95-2.64-2.51-2.64-4.68,0-1.37.53-2.52,1.58-3.45,1.05-.93,2.26-1.4,3.64-1.4s2.51.42,3.52,1.25c1.01.83,1.52,1.92,1.52,3.25,0,1.03-.35,1.93-1.06,2.71s-1.06,1.36-1.06,1.74c0,.3.14.54.43.71s.71.26,1.28.26c1.18,0,2-.68,2.48-2.05.47-1.37.71-3.17.71-5.42l.37,9.16v-19.44l-.37-17.48c-.08-.91-.19-1.6-.34-2.05-.15-.46-.83-.74-2.05-.86l-2.11-.11v-.91h15.56v23.94ZM114.93,81.75c0,1.52-.54,2.8-1.63,3.85-1.09,1.04-2.42,1.57-3.98,1.57s-2.84-.52-3.92-1.57c-1.09-1.05-1.63-2.33-1.63-3.85s.54-2.75,1.63-3.79c1.09-1.04,2.4-1.57,3.92-1.57s2.89.5,3.98,1.51,1.63,2.29,1.63,3.85Z" style="fill:#fff;"/><text transform="translate(1380.26 88.21)" style="fill:#3c3c3c; font-family:PretendardVariable-Regular, &apos;Pretendard Variable&apos;; font-size:21px; font-variation-settings:&apos;wght&apos; 400;"><tspan x="0" y="0">p</tspan><tspan x="12.16" y="0" style="letter-spacing:-.02em;">r</tspan><tspan x="19.14" y="0">e-cus</tspan><tspan x="72.98" y="0" style="letter-spacing:0em;">t</tspan><tspan x="80" y="0">omer cen</tspan><tspan x="168.06" y="0" style="letter-spacing:0em;">t</tspan><tspan x="175.09" y="0">er l con</tspan><tspan x="243.87" y="0" style="letter-spacing:0em;">t</tspan><tspan x="250.89" y="0">ent cor</tspan><tspan x="316.97" y="0" style="letter-spacing:-.02em;">r</tspan><tspan x="323.95" y="0">ection er</tspan><tspan x="406.21" y="0" style="letter-spacing:-.02em;">r</tspan><tspan x="413.19" y="0">or </tspan><tspan x="437.72" y="0" style="letter-spacing:-.02em;">r</tspan><tspan x="444.7" y="0">epo</tspan><tspan x="480.39" y="0" style="letter-spacing:.03em;">r</tspan><tspan x="488.41" y="0">t</tspan><tspan x="-726.94" y="25.2">The co</tspan><tspan x="-662.38" y="25.2" style="letter-spacing:-.02em;">p</tspan><tspan x="-650.63" y="25.2">yright of </tspan><tspan x="-566.96" y="25.2" style="letter-spacing:.01em;">t</tspan><tspan x="-559.59" y="25.2">his con</tspan><tspan x="-492.79" y="25.2" style="letter-spacing:0em;">t</tspan><tspan x="-485.77" y="25.2">ent is in </tspan><tspan x="-408.27" y="25.2" style="letter-spacing:.01em;">t</tspan><tspan x="-400.9" y="25.2">he p</tspan><tspan x="-360.05" y="25.2" style="letter-spacing:-.02em;">r</tspan><tspan x="-353.06" y="25.2" style="letter-spacing:-.02em;">o</tspan><tspan x="-341.56" y="25.2">vide</tspan><tspan x="-301.85" y="25.2" style="letter-spacing:-.06em;">r</tspan><tspan x="-295.78" y="25.2" style="letter-spacing:0em;">,</tspan><tspan x="-290.4" y="25.2" xml:space="preserve"> and if </tspan><tspan x="-227.61" y="25.2" style="letter-spacing:-.02em;">y</tspan><tspan x="-216.9" y="25.2">ou use it wi</tspan><tspan x="-111.33" y="25.2" style="letter-spacing:.01em;">t</tspan><tspan x="-103.95" y="25.2">hout permission</tspan><tspan x="46" y="25.2" style="letter-spacing:0em;">,</tspan><tspan x="51.38" y="25.2"> </tspan><tspan x="56.65" y="25.2" style="letter-spacing:-.02em;">y</tspan><tspan x="67.36" y="25.2">ou m</tspan><tspan x="113.66" y="25.2" style="letter-spacing:-.02em;">a</tspan><tspan x="124.49" y="25.2">y be liable under </tspan><tspan x="284.33" y="25.2" style="letter-spacing:.01em;">t</tspan><tspan x="291.7" y="25.2">he Co</tspan><tspan x="346.87" y="25.2" style="letter-spacing:-.02em;">p</tspan><tspan x="358.62" y="25.2">yright </tspan><tspan x="418.03" y="25.2" style="letter-spacing:0em;">A</tspan><tspan x="431.57" y="25.2">ct</tspan><tspan x="449.82" y="25.2" style="letter-spacing:0em;">,</tspan><tspan x="455.2" y="25.2" xml:space="preserve"> e</tspan><tspan x="472.08" y="25.2" style="letter-spacing:0em;">t</tspan><tspan x="479.1" y="25.2">c</tspan><tspan x="490.22" y="25.2" style="letter-spacing:0em;">.</tspan><tspan x="-103.87" y="50.4" xml:space="preserve">     Co</tspan><tspan x="-51.04" y="50.4" style="letter-spacing:-.02em;">p</tspan><tspan x="-39.29" y="50.4">yright ©LEEH</tspan><tspan x="87.4" y="50.4" style="letter-spacing:-.06em;">W</tspan><tspan x="105.44" y="50.4">AJEONG PORTFOLIO All Righ</tspan><tspan x="378.89" y="50.4" style="letter-spacing:0em;">t</tspan><tspan x="385.82" y="50.4">s </tspan><tspan x="401.51" y="50.4" style="letter-spacing:0em;">R</tspan><tspan x="414.18" y="50.4">ese</tspan><tspan x="447.81" y="50.4" style="letter-spacing:.02em;">r</tspan><tspan x="455.5" y="50.4" style="letter-spacing:-.02em;">v</tspan><tspan x="466.2" y="50.4">ed</tspan><tspan x="490.22" y="50.4" style="letter-spacing:0em;">.</tspan></text></g></svg>