<?xml version="1.0" encoding="UTF-8"?><svg id="_레이어_2" xmlns="http://www.w3.org/2000/svg" viewBox="0 0 135 135"><g id="_레이어_1-2"><path d="M101.25,67.5s-.03,0-.04,0h0s.03,0,.04,0c18.64,0,33.75-15.11,33.75-33.75S119.89,0,101.25,0s-33.73,15.09-33.75,33.72h0c-.02-18.62-15.12-33.72-33.75-33.72S0,15.11,0,33.75s15.09,33.73,33.71,33.75h0c-18.62.03-33.71,15.13-33.71,33.75s15.11,33.75,33.75,33.75,33.75-15.11,33.75-33.75c0-.01,0-.02,0-.03h0s0,.02,0,.03c0,18.64,15.11,33.75,33.75,33.75s33.75-15.11,33.75-33.75-15.11-33.75-33.75-33.75Z" style="fill:#f7ff13;"/><path d="M48.71,52.23c.99-2.11,2.38-3.74,4.16-4.9s4.32-1.74,7.62-1.74c3.65,0,6.89.99,9.7,2.97,2.81,1.97,4.21,4.52,4.21,7.63v17.78l.08,3.63c0,1.9.16,3.15.47,3.76s1.24.99,2.77,1.14l1.74.08v1.26h-24.47v-1.26l1.02-.08c1.41,0,2.27-.32,2.59-.95.31-.63.47-1.95.47-3.95l.08-3.63v-16.12l-.08-3.24c0-2.21-.37-3.79-1.1-4.74-.73-.95-1.83-1.42-3.29-1.42-1.78,0-3.05.58-3.8,1.74-.76,1.16-1.37,2.34-1.84,3.56v20.23l.08,3.63c0,2.05.14,3.39.43,3.99.29.6,1.16.91,2.62.91l1.02.08v1.26h-24.55v-1.26l1.82-.08c1.53-.16,2.45-.52,2.77-1.11.32-.58.47-1.84.47-3.79l.08-3.63v-39.04l-.08-3.24c0-1.42-.23-2.41-.67-2.97s-1.41-.91-2.88-1.07l-3-.16v-1.26h21.89v18.73c0,1.74-.03,3.2-.08,4.39-.05,1.18-.13,2.15-.24,2.88Z" style="fill:#3c3c3c;"/><path d="M100.96,79.57c0,1.16-.04,2.38-.12,3.68-.08,1.29-.12,2.04-.12,2.25,0,3.95-2.08,7.71-6.23,11.26s-8.85,5.34-14.08,5.34c-3.71,0-6.79-.66-9.23-1.97-2.44-1.32-3.66-3.48-3.66-6.48,0-1.89.73-3.49,2.19-4.78,1.46-1.29,3.14-1.94,5.05-1.94s3.48.58,4.89,1.74c1.4,1.16,2.11,2.66,2.11,4.51,0,1.42-.49,2.67-1.46,3.75s-1.46,1.88-1.46,2.41c0,.42.2.75.59.99s.99.36,1.78.36c1.63,0,2.78-.95,3.44-2.85.66-1.9.99-4.4.99-7.51l.51,12.7v-26.95l-.51-24.24c-.11-1.26-.26-2.21-.48-2.85-.21-.63-1.16-1.03-2.84-1.19l-2.93-.16v-1.26h21.58v33.2ZM100.87,33.18c0,2.11-.76,3.88-2.26,5.34-1.51,1.45-3.35,2.17-5.52,2.17s-3.93-.73-5.44-2.17c-1.51-1.45-2.26-3.23-2.26-5.34s.76-3.81,2.26-5.26c1.51-1.45,3.32-2.17,5.44-2.17s4.01.7,5.52,2.09,2.26,3.17,2.26,5.34Z" style="fill:#3c3c3c;"/></g></svg>