<svg width="294" height="397" viewBox="0 0 294 397" fill="none" xmlns="http://www.w3.org/2000/svg">
<rect width="293.557" height="397" fill="#D9D9D9"/>
<path d="M131.539 206.51V195.904H133.219V206.51H131.539ZM132.379 194.146C131.734 194.146 131.207 193.658 131.207 193.033C131.207 192.408 131.734 191.92 132.379 191.92C133.023 191.92 133.57 192.408 133.57 193.033C133.57 193.658 133.023 194.146 132.379 194.146ZM135.895 206.51V195.904H137.516V197.564H137.652C138.102 196.432 139.117 195.768 140.504 195.768C141.891 195.768 142.828 196.432 143.336 197.564H143.453C144 196.471 145.113 195.768 146.637 195.768C148.531 195.768 149.879 196.92 149.879 199.42V206.51H148.199V199.439C148.199 197.877 147.203 197.271 146.051 197.271C144.566 197.271 143.727 198.268 143.727 199.615V206.51H142.027V199.264C142.027 198.072 141.168 197.271 139.957 197.271C138.688 197.271 137.574 198.346 137.574 199.889V206.51H135.895ZM156.871 210.709C154.312 210.709 152.574 209.596 152.379 207.623H154.137C154.371 208.697 155.367 209.244 156.871 209.244C158.688 209.244 159.801 208.463 159.801 206.705V204.557H159.664C159.312 205.143 158.629 206.354 156.578 206.354C154 206.354 152.066 204.4 152.066 201.061C152.066 197.799 153.941 195.768 156.598 195.768C158.648 195.768 159.312 197.018 159.703 197.584H159.84V195.904H161.48V206.803C161.48 209.537 159.449 210.709 156.871 210.709ZM156.812 204.85C158.746 204.85 159.84 203.463 159.84 201.119C159.84 198.854 158.785 197.271 156.812 197.271C154.781 197.271 153.766 198.99 153.766 201.119C153.766 203.326 154.801 204.85 156.812 204.85Z" fill="black"/>
</svg>
