<?xml version="1.0" encoding="UTF-8"?><svg id="_레이어_2" xmlns="http://www.w3.org/2000/svg" viewBox="0 0 1096 581.8"><g id="_레이어_1-2"><rect x="2.3" y="455.23" width="4.5" height="97.7" style="fill:#3c3c3c;"/><rect x="247.33" y="455.23" width="4.5" height="97.7" style="fill:#3c3c3c;"/><rect x="15.79" y="455.23" width="31.47" height="97.7" style="fill:#3c3c3c;"/><rect x="119.19" y="455.23" width="20.94" height="97.7" style="fill:#3c3c3c;"/><rect x="56.25" y="455.23" width="15.74" height="97.7" style="fill:#3c3c3c;"/><rect x="75.36" y="455.23" width="10.12" height="97.7" style="fill:#3c3c3c;"/><rect x="89.97" y="455.23" width="10.12" height="97.7" style="fill:#3c3c3c;"/><rect x="103.46" y="455.23" width="10.12" height="97.7" style="fill:#3c3c3c;"/><rect x="145.05" y="455.23" width="5.62" height="97.7" style="fill:#3c3c3c;"/><rect x="155.16" y="455.23" width="5.62" height="97.7" style="fill:#3c3c3c;"/><rect x="164.16" y="455.23" width="24.73" height="97.7" style="fill:#3c3c3c;"/><rect x="197.88" y="455.23" width="17.98" height="97.7" style="fill:#3c3c3c;"/><rect x="224.85" y="455.23" width="12.36" height="97.7" style="fill:#3c3c3c;"/><text transform="translate(0 576.91) scale(1.23 1)" style="fill:#3c3c3c; font-family:AgencyFB-Reg, &apos;Agency FB&apos;; font-size:21.91px; letter-spacing:.9em;"><tspan x="0" y="0">20050126</tspan></text><path d="M1062.25,513.8s-.03,0-.04,0h0s.03,0,.04,0c18.64,0,33.75-15.11,33.75-33.75s-15.11-33.75-33.75-33.75-33.73,15.09-33.75,33.72h0c-.02-18.62-15.12-33.72-33.75-33.72s-33.75,15.11-33.75,33.75,15.09,33.73,33.71,33.75h0c-18.62.03-33.71,15.13-33.71,33.75s15.11,33.75,33.75,33.75,33.75-15.11,33.75-33.75c0-.01,0-.02,0-.03h0s0,.02,0,.03c0,18.64,15.11,33.75,33.75,33.75s33.75-15.11,33.75-33.75-15.11-33.75-33.75-33.75Z" style="fill:#3c3c3c;"/><path d="M1009.71,498.53c.99-2.11,2.38-3.74,4.16-4.9s4.32-1.74,7.62-1.74c3.65,0,6.89.99,9.7,2.97,2.81,1.97,4.21,4.52,4.21,7.63v17.78l.08,3.63c0,1.9.16,3.15.47,3.76s1.24.99,2.77,1.14l1.74.08v1.26h-24.47v-1.26l1.02-.08c1.41,0,2.27-.32,2.59-.95.31-.63.47-1.95.47-3.95l.08-3.63v-16.12l-.08-3.24c0-2.21-.37-3.79-1.1-4.74-.73-.95-1.83-1.42-3.29-1.42-1.78,0-3.05.58-3.8,1.74-.76,1.16-1.37,2.34-1.84,3.56v20.23l.08,3.63c0,2.05.14,3.39.43,3.99.29.6,1.16.91,2.62.91l1.02.08v1.26h-24.55v-1.26l1.82-.08c1.53-.16,2.45-.52,2.77-1.11.32-.58.47-1.84.47-3.79l.08-3.63v-39.04l-.08-3.24c0-1.42-.23-2.41-.67-2.97s-1.41-.91-2.88-1.07l-3-.16v-1.26h21.89v18.73c0,1.74-.03,3.2-.08,4.39-.05,1.18-.13,2.15-.24,2.88Z" style="fill:#fff;"/><path d="M1061.96,525.87c0,1.16-.04,2.38-.12,3.68-.08,1.29-.12,2.04-.12,2.25,0,3.95-2.08,7.71-6.23,11.26s-8.85,5.34-14.08,5.34c-3.71,0-6.79-.66-9.23-1.97-2.44-1.32-3.66-3.48-3.66-6.48,0-1.89.73-3.49,2.19-4.78,1.46-1.29,3.14-1.94,5.05-1.94s3.48.58,4.89,1.74c1.4,1.16,2.11,2.66,2.11,4.51,0,1.42-.49,2.67-1.46,3.75s-1.46,1.88-1.46,2.41c0,.42.2.75.59.99s.99.36,1.78.36c1.63,0,2.78-.95,3.44-2.85.66-1.9.99-4.4.99-7.51l.51,12.7v-26.95l-.51-24.24c-.11-1.26-.26-2.21-.48-2.85-.21-.63-1.16-1.03-2.84-1.19l-2.93-.16v-1.26h21.58v33.2ZM1061.87,479.48c0,2.11-.76,3.88-2.26,5.34-1.51,1.45-3.35,2.17-5.52,2.17s-3.93-.73-5.44-2.17c-1.51-1.45-2.26-3.23-2.26-5.34s.76-3.81,2.26-5.26c1.51-1.45,3.32-2.17,5.44-2.17s4.01.7,5.52,2.09,2.26,3.17,2.26,5.34Z" style="fill:#fff;"/><path d="M911.25,513.8s-.03,0-.04,0h0s.03,0,.04,0c18.64,0,33.75-15.11,33.75-33.75s-15.11-33.75-33.75-33.75-33.73,15.09-33.75,33.72h0c-.02-18.62-15.12-33.72-33.75-33.72s-33.75,15.11-33.75,33.75,15.09,33.73,33.71,33.75h0c-18.62.03-33.71,15.13-33.71,33.75s15.11,33.75,33.75,33.75,33.75-15.11,33.75-33.75c0-.01,0-.02,0-.03h0s0,.02,0,.03c0,18.64,15.11,33.75,33.75,33.75s33.75-15.11,33.75-33.75-15.11-33.75-33.75-33.75Z" style="fill:none; stroke:#3c3c3c; stroke-miterlimit:10;"/><path d="M858.71,498.53c.99-2.11,2.38-3.74,4.16-4.9s4.32-1.74,7.62-1.74c3.65,0,6.89.99,9.7,2.97,2.81,1.97,4.21,4.52,4.21,7.63v17.78l.08,3.63c0,1.9.16,3.15.47,3.76s1.24.99,2.77,1.14l1.74.08v1.26h-24.47v-1.26l1.02-.08c1.41,0,2.27-.32,2.59-.95.31-.63.47-1.95.47-3.95l.08-3.63v-16.12l-.08-3.24c0-2.21-.37-3.79-1.1-4.74-.73-.95-1.83-1.42-3.29-1.42-1.78,0-3.05.58-3.8,1.74-.76,1.16-1.37,2.34-1.84,3.56v20.23l.08,3.63c0,2.05.14,3.39.43,3.99.29.6,1.16.91,2.62.91l1.02.08v1.26h-24.55v-1.26l1.82-.08c1.53-.16,2.45-.52,2.77-1.11.32-.58.47-1.84.47-3.79l.08-3.63v-39.04l-.08-3.24c0-1.42-.23-2.41-.67-2.97s-1.41-.91-2.88-1.07l-3-.16v-1.26h21.89v18.73c0,1.74-.03,3.2-.08,4.39-.05,1.18-.13,2.15-.24,2.88Z" style="fill:#3c3c3c;"/><path d="M910.96,525.87c0,1.16-.04,2.38-.12,3.68-.08,1.29-.12,2.04-.12,2.25,0,3.95-2.08,7.71-6.23,11.26s-8.85,5.34-14.08,5.34c-3.71,0-6.79-.66-9.23-1.97-2.44-1.32-3.66-3.48-3.66-6.48,0-1.89.73-3.49,2.19-4.78,1.46-1.29,3.14-1.94,5.05-1.94s3.48.58,4.89,1.74c1.4,1.16,2.11,2.66,2.11,4.51,0,1.42-.49,2.67-1.46,3.75s-1.46,1.88-1.46,2.41c0,.42.2.75.59.99s.99.36,1.78.36c1.63,0,2.78-.95,3.44-2.85.66-1.9.99-4.4.99-7.51l.08-8.3v-26.95l-.08-3.24c-.11-1.26-.26-2.21-.48-2.85-.21-.63-1.16-1.03-2.84-1.19l-2.93-.16v-1.26h21.58v33.2ZM910.87,479.48c0,2.11-.76,3.88-2.26,5.34-1.51,1.45-3.35,2.17-5.52,2.17s-3.93-.73-5.44-2.17c-1.51-1.45-2.26-3.23-2.26-5.34s.76-3.81,2.26-5.26c1.51-1.45,3.32-2.17,5.44-2.17s4.01.7,5.52,2.09,2.26,3.17,2.26,5.34Z" style="fill:#3c3c3c;"/><text transform="translate(465.79 476.84)" style="font-family:PretendardVariable-Regular, &apos;Pretendard Variable&apos;; font-size:24px; font-variation-settings:&apos;wght&apos; 400;"><tspan x="0" y="0">p</tspan><tspan x="13.9" y="0" style="letter-spacing:-.02em;">r</tspan><tspan x="21.88" y="0">esen</tspan><tspan x="73.68" y="0" style="letter-spacing:0em;">t</tspan><tspan x="81.7" y="0">ed </tspan><tspan x="115.17" y="0" style="letter-spacing:-.02em;">b</tspan><tspan x="128.88" y="0">y LEE H</tspan><tspan x="210.61" y="0" style="letter-spacing:-.06em;">W</tspan><tspan x="231.22" y="0">AJEONG</tspan><tspan x="178.55" y="28.8">conside</tspan><tspan x="262.8" y="28.8" style="letter-spacing:0em;">r</tspan><tspan x="271.18" y="28.8">ation</tspan><tspan x="233.45" y="57.6">sincerity</tspan><tspan x="237.01" y="86.4">efficient</tspan></text><path d="M547.07,425c-141.86,0-275.19-22.18-375.42-62.46-48.55-19.51-86.63-42.19-113.17-67.41-27.15-25.79-40.91-53.09-40.91-81.12s13.77-55.33,40.91-81.12c26.54-25.22,64.62-47.9,113.17-67.41C271.88,25.18,405.21,3,547.07,3s275.19,22.18,375.42,62.46c48.55,19.51,86.63,42.19,113.17,67.41,27.15,25.79,40.91,53.09,40.91,81.12s-13.77,55.33-40.91,81.12c-26.54,25.22-64.62,47.9-113.17,67.41-100.23,40.28-233.55,62.46-375.42,62.46Z" style="fill:#f7ff13;"/><path d="M547.07,6c71.55,0,140.95,5.63,206.27,16.73,62.99,10.71,119.52,26.02,168.03,45.51,48.2,19.37,85.96,41.85,112.22,66.8,26.53,25.21,39.98,51.77,39.98,78.95s-13.45,53.74-39.98,78.95c-26.27,24.96-64.03,47.44-112.22,66.8-48.51,19.49-105.04,34.81-168.03,45.51-65.32,11.1-134.72,16.73-206.27,16.73s-140.95-5.63-206.27-16.73c-62.99-10.71-119.52-26.02-168.03-45.51-48.2-19.37-85.96-41.85-112.22-66.8-26.53-25.21-39.98-51.77-39.98-78.95s13.45-53.74,39.98-78.95c26.27-24.96,64.03-47.44,112.22-66.8,48.51-19.49,105.04-34.81,168.03-45.51,65.32-11.1,134.72-16.73,206.27-16.73M547.07,0C252.98,0,14.57,95.81,14.57,214s238.41,214,532.5,214,532.5-95.81,532.5-214S841.16,0,547.07,0h0Z" style="fill:#3c3c3c;"/><path d="M182.19,215.55c-5.91,10.05-10.84,19.22-14.78,27.5-6.11,12.71-9.17,20.55-9.17,23.51,0,2.56,1.33,3.84,3.99,3.84,2.27,0,6.65-.39,13.16-1.18,3.55-.49,7-.74,10.35-.74,4.34,0,6.51,1.43,6.51,4.29,0,2.56-2.27,4.14-6.8,4.73-17.25,2.17-29.77,4.24-37.55,6.21-11.83,3.06-23.61,7.3-35.33,12.71-1.28.59-2.27.89-2.96.89-3.15,0-4.73-1.58-4.73-4.73,0-1.38,1.13-2.71,3.4-3.99,3.25-1.87,11.04-5.27,23.36-10.2,18.43-43.76,41.35-84.62,68.75-122.56,8.48-11.33,12.71-17.59,12.71-18.78,0-1.97-.94-2.96-2.81-2.96-1.97,0-8.08,2.12-18.33,6.36-1.28.59-2.56.89-3.84.89-1.87,0-2.81-1.53-2.81-4.58,0-1.97,4.58-4.73,13.75-8.28,9.26-3.74,20.3-7.29,33.12-10.64,18.82-4.93,35.73-7.39,50.71-7.39,13.99,0,24.59,2.47,31.79,7.39,7.29,5.03,10.94,12.03,10.94,20.99,0,13.8-8.28,27.4-24.84,40.81-27.11,21.88-66.63,33.86-118.57,35.93ZM245.62,123.59c-7.59,8.97-17.45,22.13-29.57,39.47-11.53,16.76-20.9,31.25-28.09,43.47,25.03-.79,48.25-6.51,69.63-17.15,14.78-7.29,26.46-15.47,35.04-24.54,7.19-7.59,10.79-15.42,10.79-23.51,0-14.29-9.46-21.44-28.39-21.44-10.05,0-19.86,1.23-29.42,3.7Z" style="fill:#fff; stroke:#3c3c3c; stroke-miterlimit:10; stroke-width:6px;"/><path d="M352.8,189.98h.44c5.22-2.07,9.41-3.1,12.57-3.1,5.03,0,8.92,1.53,11.68,4.58,2.56,2.86,3.84,6.7,3.84,11.53,0,8.28-3.16,17.84-9.46,28.68-10.64,18.14-24.45,32.48-41.4,43.02-10.35,6.41-19.86,9.61-28.53,9.61-5.42,0-10-1.82-13.75-5.47-4.24-4.04-6.36-9.51-6.36-16.41,0-14.78,8.08-30.75,24.25-47.9,12.71-13.5,24.39-22.18,35.04-26.02,2.46-.89,4.58-1.33,6.36-1.33,2.86,0,4.63.94,5.32,2.81ZM337.72,197.37c-6.11,3.55-12.86,9.31-20.25,17.3-12.62,13.7-18.92,26.37-18.92,38,0,5.03,1.43,9.07,4.29,12.12,3.05,3.25,7.15,4.88,12.27,4.88,9.46,0,20.01-5.91,31.64-17.74,7.19-7.19,12.62-14.88,16.26-23.06,2.56-5.81,3.84-10.99,3.84-15.52s-1.33-8.08-3.99-10.94c-2.37-2.37-5.27-3.55-8.72-3.55-1.87,0-4.63.74-8.28,2.22-1.68.69-3.06,1.03-4.14,1.03-2.66,0-3.99-1.58-3.99-4.73Z" style="fill:#fff; stroke:#3c3c3c; stroke-miterlimit:10; stroke-width:6px;"/><path d="M379.12,278.39c8.08-18.13,21.14-41.1,39.18-68.9,1.18-1.77,1.77-3.25,1.77-4.44,0-2.27-1.48-3.15-4.44-2.66-2.17.3-9.07,2.61-20.7,6.95-1.77.59-3.1.89-3.99.89-2.17,0-3.25-1.23-3.25-3.7,0-1.68,1.13-3.05,3.4-4.14,4.24-2.17,12.81-5.22,25.73-9.17,10.15-3.15,17.35-4.73,21.59-4.73s6.06,1.68,6.06,5.03c0,2.07-.89,4.44-2.66,7.1-.2.39-2.61,3.99-7.24,10.79-3.55,5.42-6.41,9.96-8.58,13.6,13.01-9.46,28.68-17.69,47.01-24.69,7.69-9.26,13.99-13.9,18.92-13.9s7.39,2.12,7.39,6.36c0,4.83-5.52,9.81-16.56,14.93-2.07,3.84-3.1,8.13-3.1,12.86,0,1.48.2,3.75.59,6.8-3.45,4.24-7.2,6.36-11.24,6.36-5.42,0-8.13-2.61-8.13-7.84,0-3.45,1.28-7.93,3.84-13.45-12.03,3.55-23.56,9.51-34.6,17.89-10.74,7.98-18.68,17.15-23.8,27.5-1.97,4.04-2.96,7.1-2.96,9.17,0,3.65,2.76,5.47,8.28,5.47l10.35-.15c4.83,0,8.13.2,9.91.59,2.37.4,3.55,1.68,3.55,3.84,0,2.76-2.56,4.04-7.69,3.84-12.03-.39-23.95.84-35.78,3.7-6.8,1.77-18.13,5.47-34,11.09-4.53,1.68-6.8.59-6.8-3.25,0-1.97,1.58-3.65,4.73-5.03,6.8-2.96,14.54-5.86,23.21-8.72Z" style="fill:#fff; stroke:#3c3c3c; stroke-miterlimit:10; stroke-width:6px;"/><path d="M531.4,283.27c4.63-7.59,9.26-14.29,13.9-20.11,6.11-7.59,10.3-11.38,12.57-11.38,2.46,0,3.7,1.28,3.7,3.84,0,1.38-.79,3.01-2.37,4.88-7.29,8.28-13.41,16.21-18.33,23.8-4.44,7.1-9.31,16.51-14.64,28.24-1.48,3.35-3.3,5.03-5.47,5.03s-3.4-1.33-3.4-3.99c0-2.07,2.22-7.54,6.65-16.41.79-1.68,1.18-2.96,1.18-3.84,0-1.28-.54-2.07-1.63-2.37-.49-.2-3.5-.49-9.02-.89-17.54-1.38-26.32-9.36-26.32-23.95,0-15.87,10.5-38.49,31.49-67.86-3.75.4-9.61,1.28-17.59,2.66-4.83.79-7.24-.15-7.24-2.81,0-1.97,1.63-3.4,4.88-4.29,5.81-1.77,14.98-3.55,27.5-5.32,11.63-12.52,22.37-22.57,32.23-30.16,7-5.52,11.33-8.28,13.01-8.28,2.66,0,3.99,1.13,3.99,3.4,0,1.28-.59,2.56-1.77,3.84-.2.2-2.66,2.46-7.39,6.8-9.86,9.27-14.78,15.28-14.78,18.04,0,1.87,1.13,2.81,3.4,2.81.49,0,1.33-.05,2.51-.15,7.59-.39,14.93-.59,22.03-.59,4.83,0,8.13.2,9.91.59,2.07.39,3.1,1.63,3.1,3.7s-1.03,3.5-3.1,3.99c-.69.1-4.88.15-12.57.15-10.45.1-22.67.89-36.67,2.37-6.31,7.98-12.47,17.25-18.48,27.79-11.04,19.22-16.56,33.32-16.56,42.28,0,5.91,2.12,10.6,6.36,14.05,3.65,2.96,8.33,4.44,14.05,4.44,1.08,0,2.71-.1,4.88-.3Z" style="fill:#fff; stroke:#3c3c3c; stroke-miterlimit:10; stroke-width:6px;"/><path d="M638.44,198.85c-5.62,7.59-12.67,18.58-21.14,32.97-11.73,19.91-17.59,31.93-17.59,36.07,0,2.66,1.63,3.99,4.88,3.99,2.46,0,6.26-.2,11.38-.59,2.37-.2,4.73-.3,7.1-.3,4.53,0,6.8,1.38,6.8,4.14,0,2.46-2.12,3.75-6.36,3.84-11.34.3-23.11,1.92-35.33,4.88-12.22,2.86-23.26,6.7-33.12,11.53-1.68.79-2.96,1.18-3.84,1.18-1.77,0-3.05-.59-3.84-1.77-.59-.98-.59-2.07,0-3.25,1.68-3.35,10.6-7.64,26.76-12.86,19.32-37.35,33.61-62.88,42.87-76.58-5.13.89-11.53,2.07-19.22,3.55-1.09.2-2.12.3-3.1.3-2.66,0-3.99-1.23-3.99-3.7s2.02-4.19,6.06-5.17c6.11-1.58,15.18-3.2,27.2-4.88,26.51-36.07,53.52-54.11,81.02-54.11,1.68,0,4.48.2,8.43.59,8.67-12.91,14.54-19.37,17.59-19.37,2.46,0,3.7,1.18,3.7,3.55,0,1.48-.94,3.4-2.81,5.77-8.97,10.94-17.35,24.69-25.13,41.25-1.97,4.14-3.84,6.21-5.62,6.21-2.66,0-3.99-1.33-3.99-3.99,0-1.67,2.91-8.38,8.72-20.11.79-1.38,1.18-2.61,1.18-3.7,0-1.97-1.63-2.96-4.88-2.96-9.17,0-18.88,4.09-29.13,12.27-9.56,7.79-17.59,16.51-24.1,26.17-2.37,3.65-1.43,5.47,2.81,5.47l22.18-.3c3.45,0,5.77.1,6.95.3,2.37.49,3.55,1.77,3.55,3.84,0,2.56-1.68,3.99-5.03,4.29-.79.1-7.44.25-19.96.44-1.97,0-8.97.35-20.99,1.03Z" style="fill:#fff; stroke:#3c3c3c; stroke-miterlimit:10; stroke-width:6px;"/><path d="M729.07,189.98h.44c5.22-2.07,9.41-3.1,12.57-3.1,5.03,0,8.92,1.53,11.68,4.58,2.56,2.86,3.84,6.7,3.84,11.53,0,8.28-3.16,17.84-9.46,28.68-10.64,18.14-24.45,32.48-41.4,43.02-10.35,6.41-19.86,9.61-28.53,9.61-5.42,0-10-1.82-13.75-5.47-4.24-4.04-6.36-9.51-6.36-16.41,0-14.78,8.08-30.75,24.25-47.9,12.72-13.5,24.39-22.18,35.04-26.02,2.46-.89,4.58-1.33,6.36-1.33,2.86,0,4.63.94,5.32,2.81ZM713.99,197.37c-6.11,3.55-12.86,9.31-20.25,17.3-12.62,13.7-18.92,26.37-18.92,38,0,5.03,1.43,9.07,4.29,12.12,3.05,3.25,7.15,4.88,12.27,4.88,9.46,0,20.01-5.91,31.64-17.74,7.19-7.19,12.62-14.88,16.26-23.06,2.56-5.81,3.84-10.99,3.84-15.52s-1.33-8.08-3.99-10.94c-2.37-2.37-5.27-3.55-8.72-3.55-1.87,0-4.63.74-8.28,2.22-1.68.69-3.06,1.03-4.14,1.03-2.66,0-3.99-1.58-3.99-4.73Z" style="fill:#fff; stroke:#3c3c3c; stroke-miterlimit:10; stroke-width:6px;"/><path d="M826.94,159.52c1.18-1.58,1.77-2.96,1.77-4.14,0-1.97-1.09-2.96-3.25-2.96-2.37,0-9.02,1.68-19.96,5.03-1.58.49-2.91.74-3.99.74-2.17,0-3.25-1.18-3.25-3.55,0-2.17,1.53-3.79,4.58-4.88,7.88-2.96,18.43-5.96,31.64-9.02,10.15-2.37,16.71-3.55,19.66-3.55,3.25,0,4.88,1.38,4.88,4.14,0,1.18-.49,2.56-1.48,4.14-1.18,1.77-4.93,6.75-11.24,14.93-18.63,24.05-35.33,47.85-50.12,71.41-12.32,19.61-18.48,31.1-18.48,34.45,0,2.96,2.51,4.19,7.54,3.7,3.25-.3,8.33-.44,15.23-.44,5.81,0,8.72,1.48,8.72,4.44,0,2.76-2.27,4.14-6.8,4.14-12.91.2-24.54,1.43-34.89,3.7-7,1.68-18.33,5.42-34,11.24-1.68.69-3.05,1.03-4.14,1.03-2.66,0-3.99-1.18-3.99-3.55s1.58-4.19,4.73-5.77c3.45-1.67,8.97-3.89,16.56-6.65l6.8-2.51c16.85-34.69,41.35-73.38,73.48-116.06Z" style="fill:#fff; stroke:#3c3c3c; stroke-miterlimit:10; stroke-width:6px;"/><path d="M825.76,274.69l1.18-2.22c12.91-24.25,26.02-46.42,39.33-66.53,1.67-2.46,2.51-4.14,2.51-5.03,0-1.58-.84-2.37-2.51-2.37-2.17,0-10.6,2.71-25.28,8.13-1.77.69-3.06,1.04-3.84,1.04-2.17,0-3.25-1.13-3.25-3.4,0-1.48.64-2.66,1.92-3.55,4.63-3.35,15.87-7.39,33.71-12.12,8.48-2.27,14.19-3.4,17.15-3.4,4.83,0,7.24,1.73,7.24,5.17,0,1.28-.4,2.71-1.18,4.29-1.09,2.07-5.08,8.23-11.98,18.48-4.54,6.9-11.58,18.24-21.14,34-5.72,9.56-8.57,15.67-8.57,18.33s1.82,3.84,5.47,3.84l19.37-.3c4.14,0,6.21,1.38,6.21,4.14,0,2.96-2.22,4.44-6.65,4.44-13.01.2-22.82.89-29.42,2.07-7.2,1.28-14.29,3.06-21.29,5.32-6.9,2.17-13.45,4.49-19.66,6.95-1.67.59-3.01.89-3.99.89-2.56,0-3.84-1.28-3.84-3.84,0-2.17,1.48-3.99,4.44-5.47,5.91-2.76,13.95-5.72,24.1-8.87ZM908.26,136.31c3.15,0,5.71.99,7.69,2.96,1.87,1.87,2.81,4.39,2.81,7.54,0,3.75-1.38,6.75-4.14,9.02-2.27,1.87-5.17,2.81-8.72,2.81s-6.41-1.13-8.28-3.4c-1.58-1.77-2.37-3.99-2.37-6.65,0-3.05,1.03-5.72,3.1-7.98,2.56-2.86,5.86-4.29,9.91-4.29Z" style="fill:#fff; stroke:#3c3c3c; stroke-miterlimit:10; stroke-width:6px;"/><path d="M960.74,189.98h.44c5.22-2.07,9.41-3.1,12.57-3.1,5.03,0,8.92,1.53,11.68,4.58,2.56,2.86,3.84,6.7,3.84,11.53,0,8.28-3.16,17.84-9.46,28.68-10.64,18.14-24.45,32.48-41.4,43.02-10.35,6.41-19.86,9.61-28.53,9.61-5.42,0-10-1.82-13.75-5.47-4.24-4.04-6.36-9.51-6.36-16.41,0-14.78,8.08-30.75,24.25-47.9,12.72-13.5,24.39-22.18,35.04-26.02,2.46-.89,4.58-1.33,6.36-1.33,2.86,0,4.63.94,5.32,2.81ZM945.66,197.37c-6.11,3.55-12.86,9.31-20.25,17.3-12.62,13.7-18.92,26.37-18.92,38,0,5.03,1.43,9.07,4.29,12.12,3.05,3.25,7.15,4.88,12.27,4.88,9.46,0,20.01-5.91,31.64-17.74,7.19-7.19,12.62-14.88,16.26-23.06,2.56-5.81,3.84-10.99,3.84-15.52s-1.33-8.08-3.99-10.94c-2.37-2.37-5.27-3.55-8.72-3.55-1.87,0-4.63.74-8.28,2.22-1.68.69-3.06,1.03-4.14,1.03-2.66,0-3.99-1.58-3.99-4.73Z" style="fill:#fff; stroke:#3c3c3c; stroke-miterlimit:10; stroke-width:6px;"/></g></svg>