<?xml version="1.0" encoding="UTF-8"?><svg id="_레이어_2" xmlns="http://www.w3.org/2000/svg" viewBox="0 0 1034 408"><g id="_레이어_1-2"><path d="M517,406.5C232.75,406.5,1.5,315.66,1.5,204S232.75,1.5,517,1.5s515.5,90.84,515.5,202.5-231.25,202.5-515.5,202.5Z" style="fill:#f7ff13;"/><path d="M517,3c69.63,0,137.17,5.38,200.75,15.99,61.36,10.24,116.44,24.89,163.73,43.55,47.13,18.6,84.09,40.21,109.85,64.25,26.33,24.56,39.67,50.54,39.67,77.21s-13.35,52.65-39.67,77.21c-25.76,24.03-62.72,45.65-109.85,64.25-47.28,18.66-102.37,33.31-163.73,43.55-63.58,10.61-131.12,15.99-200.75,15.99s-137.17-5.38-200.75-15.99c-61.36-10.24-116.44-24.89-163.73-43.55-47.13-18.6-84.09-40.21-109.85-64.25C16.35,256.65,3,230.67,3,204s13.35-52.65,39.67-77.21c25.76-24.03,62.72-45.65,109.85-64.25,47.28-18.66,102.37-33.31,163.73-43.55,63.58-10.61,131.12-15.99,200.75-15.99M517,0C231.47,0,0,91.33,0,204s231.47,204,517,204,517-91.33,517-204S802.53,0,517,0h0Z" style="fill:#3c3c3c;"/><path d="M190.43,158.72l-22.82,15.93c-3.54,2.35-5.91,3.52-7.11,3.52-2.19,0-3.8-.92-4.83-2.75-1.02-1.83-1.54-4.67-1.54-8.53,0-4.42.71-9.52,2.12-15.3,1.42-5.78,3.04-10.03,4.88-12.76,1.91-2.82,6.38-6.7,13.43-11.63,7.04-4.93,15.51-9.89,25.42-14.87,9.91-4.98,20.24-9.12,30.99-12.41,10.75-3.29,20.59-4.93,29.51-4.93,6.23,0,10.83,1.32,13.8,3.95,2.97,2.63,4.46,9.59,4.46,20.86,0,6.11-1.58,12.9-4.72,20.37-3.15,7.47-6.94,14.73-11.36,21.78-4.42,7.05-12.61,19.55-24.57,37.5,6.37-1.31,11.04-2.16,14.01-2.54,2.97-.38,8.53-1.17,16.66-2.4,9.41-18.04,17.02-32.45,22.82-43.21,5.8-10.76,10.72-19.69,14.75-26.79,4.03-7.09,6.44-11.16,7.22-12.19,1.41-2.16,2.6-2.98,3.56-2.47.96.52,1.43,2.47,1.43,5.85,0,3.86-.3,7-.9,9.45-.6,2.45-1.54,4.86-2.81,7.26s-1.95,3.69-2.02,3.88c-1.84,4.04-4.49,9.33-7.96,15.86-3.47,6.53-6.86,12.99-10.19,19.38-3.33,6.39-7.11,13.96-11.36,22.7,7.92.38,15.74,1.74,23.46,4.09l-19.1,34.4c-5.24-.94-12.21-1.41-20.91-1.41-2.12,5.64-3.77,10.06-4.94,13.25-1.17,3.2-2.16,6.23-2.97,9.09-.81,2.87-1.22,5.52-1.22,7.96,0,1.5.33,3.5,1.01,5.99.67,2.49,1.01,3.93,1.01,4.3,0,1.88-1.04,3.88-3.13,5.99-2.09,2.12-4.53,3.97-7.32,5.57-2.8,1.6-4.97,2.4-6.53,2.4-2.62,0-3.93-2.63-3.93-7.89,0-10.9,4.21-26.08,12.63-45.54-11.18,1.22-24.02,3.43-38.53,6.63-4.18,7.33-7.96,14.29-11.36,20.86-3.4,6.58-6.17,12.12-8.33,16.63-2.16,4.51-3.75,7.52-4.78,9.02-1.03,1.5-2.14,2.26-3.34,2.26-2.05,0-3.79-1.18-5.2-3.52-.64-.94-1.04-1.88-1.22-2.82-.18-.94-.27-1.97-.27-3.1v-2.96c0-1.13.46-2.77,1.38-4.93.92-2.16,3.11-6.46,6.58-12.9,3.47-6.44,6.01-11.3,7.64-14.59-1.84.28-4.21.42-7.11.42-3.68,0-6.67-.89-8.97-2.68-2.3-1.78-3.45-3.99-3.45-6.63,0-3.01.6-6.22,1.8-9.66,1.2-3.43,2.76-6.3,4.67-8.6,1.91-2.3,3.82-3.45,5.73-3.45,1.27,0,2.79.52,4.56,1.55l27.38-9.02c15.28-21.99,26.68-39.38,34.18-52.16,7.5-12.78,11.25-21.01,11.25-24.67,0-2.07-.42-3.78-1.27-5.15-.85-1.36-2.03-2.42-3.56-3.17-1.52-.75-3.27-1.13-5.25-1.13-2.34,0-6.03.85-11.09,2.54-5.06,1.69-11.09,4.18-18.1,7.47-7,3.29-15.74,7.85-26.22,13.67-7.78,4.23-11.67,6.91-11.67,8.04,0,1.32.53,2.16,1.59,2.54,1.06.38,2.42.66,4.09.85,1.66.19,2.49.52,2.49.99,0,.38-.41.89-1.22,1.55-.81.66-1.93,1.46-3.34,2.4Z" style="fill:#fff; stroke:#3c3c3c; stroke-miterlimit:10; stroke-width:3px;"/><path d="M363.75,254.73c0,4.23,1.2,6.34,3.61,6.34,3.11,0,8.56-7,16.35-21.01-.28-2.63-.42-4.37-.42-5.22,0-5.08,1.52-11.28,4.56-18.61,3.04-7.33,6.54-13.72,10.51-19.17,3.96-5.45,6.97-8.18,9.02-8.18,2.48,0,3.71,3.95,3.71,11.84,0,6.49-1.04,12.88-3.13,19.17-2.09,6.3-5.11,12.74-9.07,19.31.64.85,1.34,1.72,2.12,2.61.78.89,1.61,1.65,2.49,2.25.88.61,1.82.92,2.81.92,2.33,0,5.31-2.49,8.92-7.47v10.01c-5.59,7.71-10.44,11.56-14.54,11.56-2.41,0-4.3-.4-5.68-1.2-1.38-.8-3.13-2.23-5.25-4.3-13.02,20.77-22.93,31.16-29.72,31.16-2.62,0-4.69-1.29-6.21-3.88-1.52-2.58-2.28-6.18-2.28-10.78,0-2.26.71-10.71,2.12-25.38-2.76,4.23-5.98,9.21-9.66,14.94-3.68,5.73-6.65,10.13-8.92,13.18-2.27,3.06-4.37,5.43-6.32,7.12-1.95,1.69-3.91,2.54-5.89,2.54s-4.19-1.6-6.85-4.79c-2.65-3.19-4.9-7.45-6.74-12.76-1.84-5.31-2.76-11.02-2.76-17.13s.64-11,1.91-15.23c1.27-4.23,4.17-10.57,8.7-19.03,4.1-7.52,7.75-13.67,10.93-18.47,3.18-4.79,6.07-8.5,8.65-11.14,2.58-2.63,4.69-3.95,6.32-3.95.99,0,2.28.31,3.87.92,1.59.61,3.01,1.43,4.25,2.47,1.24,1.04,1.86,2.12,1.86,3.24,0,3.57-1.19,8.08-3.56,13.53-2.37,5.45-5.89,11.56-10.56,18.33-4.67,6.77-10.01,13.67-16.03,20.72-1.63,6.49-2.44,11.75-2.44,15.79,0,1.32.3,2.56.9,3.74.6,1.18,1.33,1.76,2.18,1.76,2.9,0,8.47-6.01,16.72-18.04,8.24-12.03,19.12-30.26,32.64-54.7.49-.94,1.56-1.41,3.18-1.41,1.77,0,3.38.52,4.83,1.55,1.45,1.04,2.18,2.45,2.18,4.23,0,1.04-1.86,6.53-5.57,16.49-3.71,9.96-6.94,19.1-9.66,27.42-2.72,8.32-4.09,14.54-4.09,18.68Z" style="fill:#fff; stroke:#3c3c3c; stroke-miterlimit:10; stroke-width:3px;"/><path d="M427.22,212.86c10.75-12.97,21.19-22.6,31.31-28.9,10.12-6.3,17.94-9.45,23.46-9.45,1.49,0,2.87.82,4.14,2.47,1.27,1.65,2.28,3.55,3.02,5.71.74,2.16,1.11,3.76,1.11,4.79,0,1.69-.5,2.94-1.49,3.74-.99.8-2.72,1.76-5.2,2.89.49,1.5,1.13,3.43,1.91,5.78.78,2.35,1.38,4.25,1.8,5.71.42,1.46.64,2.75.64,3.88,0,2.25-1.72,6.46-5.15,12.62-3.43,6.16-5.84,10.69-7.22,13.6-1.38,2.91-2.07,6.49-2.07,10.71,0,6.96,2.4,10.43,7.22,10.43s12.7-6.15,23.24-18.47v8.6c-17.9,26.41-30.71,39.61-38.42,39.61-2.76,0-4.72-1.2-5.89-3.59-1.17-2.4-1.75-5.94-1.75-10.64,0-7.42,2.02-18.19,6.05-32.28-10.33,15.23-18.01,26.06-23.03,32.5-5.02,6.44-9.16,9.66-12.42,9.66-1.56,0-3.5-1.78-5.84-5.36-2.33-3.57-4.4-8.2-6.21-13.89-1.8-5.68-2.71-11.58-2.71-17.69,0-4.42.32-8.11.96-11.07.64-2.96,1.87-5.99,3.71-9.09,1.84-3.1,4.78-7.19,8.81-12.26ZM478.07,197.35c-18.4,11.19-31.51,20.68-39.32,28.48-7.82,7.8-11.73,15.84-11.73,24.11,0,3.01.39,5.48,1.17,7.4.78,1.93,1.84,2.89,3.18,2.89.78,0,2.16-.66,4.14-1.97,7.43-5.83,14.22-13.41,20.38-22.77,6.16-9.35,13.55-22.06,22.18-38.13Z" style="fill:#fff; stroke:#3c3c3c; stroke-miterlimit:10; stroke-width:3px;"/><path d="M584.31,248.1l-28.23,21.15c-6.23,14-12.47,27.23-18.73,39.68-6.26,12.45-11.82,22.74-16.66,30.87-4.85,8.13-9.04,14.33-12.58,18.61-3.54,4.28-6.16,6.41-7.85,6.41-2.26,0-4.1-1.01-5.52-3.03-1.41-2.02-2.12-4.39-2.12-7.12,0-10.15,4.3-22.86,12.9-38.13,8.6-15.27,22.2-31.51,40.81-48.71,8.07-20.58,14.72-39.28,19.95-56.11,5.24-16.82,9.23-31.2,11.99-43.14,2.76-11.93,4.69-21.52,5.79-28.76,1.1-7.24,1.64-11.84,1.64-13.82,0-4.04-1.17-6.06-3.5-6.06-1.91,0-4.72,1.46-8.44,4.37-3.71,2.91-7.73,7.26-12.05,13.04-4.32,5.78-8.35,12.48-12.1,20.09-3.75,7.52-7.16,15.96-10.24,25.31-3.08,9.35-5.45,17.97-7.11,25.87-1.66,7.9-2.49,14.24-2.49,19.03,0,1.22.14,3.9.42,8.04.64-1.31,1.41-2.91,2.33-4.79.92-1.88,2.09-3.81,3.5-5.78,1.41-1.97,2.9-3.62,4.46-4.93.92-.94,2.02-1.71,3.29-2.33,1.27-.61,1.91-.54,1.91.21,0,.56-2.02,4.11-6.05,10.64-4.03,6.53-7.54,12.43-10.51,17.69-1.7,3.01-3.96,5.83-6.79,8.46-2.83,2.63-5.13,3.95-6.9,3.95-2.12,0-3.52-1.32-4.19-3.95-.67-2.63-1.01-6.81-1.01-12.55,0-13.82,1.79-29.18,5.36-46.1,3.57-16.92,8.37-31.77,14.38-44.55,4.88-10.15,10.86-19.34,17.94-27.56,7.07-8.22,13.96-14.64,20.64-19.24,6.69-4.6,11.94-6.91,15.76-6.91,4.67,0,8.28,1.95,10.83,5.85,2.55,3.9,3.82,9.28,3.82,16.14,0,3.38-.3,7.19-.9,11.42-.6,4.23-1.36,8.51-2.28,12.83-.92,4.32-2.51,11.28-4.78,20.86-2.26,9.59-3.75,15.93-4.46,19.03-2.19,9.68-5.08,19.62-8.65,29.82-3.57,10.2-8.65,23.71-15.23,40.53l21.65-15.51v9.16Z" style="fill:#fff; stroke:#3c3c3c; stroke-miterlimit:10; stroke-width:3px;"/><path d="M601.5,243.17v3.52c0,5.55,1.03,9.87,3.08,12.97s4.74,4.65,8.07,4.65,7.06-1.08,10.77-3.24c3.71-2.16,7.41-5.03,11.09-8.6,3.68-3.57,8.17-8.36,13.48-14.38v8.6c-8,12.78-15.5,22.58-22.5,29.39-7.01,6.81-14.12,10.22-21.33,10.22-6.3,0-11.29-3.24-14.97-9.73-3.68-6.48-5.52-15.37-5.52-26.64,0-9.87,1.73-18.82,5.2-26.86,3.47-8.04,9.13-16.52,16.98-25.45,5.38-6.11,10.72-10.71,16.03-13.82s10.05-4.65,14.22-4.65c3.33,0,5.96,1.01,7.91,3.03,1.95,2.02,2.92,5.05,2.92,9.09,0,5.92-1.66,11.82-4.99,17.69-3.33,5.88-8.4,11.7-15.23,17.48-6.83,5.78-15.23,11.35-25.21,16.71ZM602.57,234c6.37-3.29,11.82-7.38,16.34-12.26,4.53-4.89,7.87-9.56,10.03-14.03,2.16-4.46,3.24-7.73,3.24-9.8s-.74-3.24-2.23-3.24c-1.27,0-3.34,1.08-6.21,3.24-2.87,2.16-5.77,4.98-8.7,8.46-2.94,3.48-5.57,7.57-7.91,12.26-2.33,4.7-3.86,9.82-4.56,15.37Z" style="fill:#fff; stroke:#3c3c3c; stroke-miterlimit:10; stroke-width:3px;"/><path d="M716.24,237.81v9.45c-4.67,5.64-8.42,9.4-11.25,11.28-2.83,1.88-6.9,2.63-12.21,2.26-9.2,14.47-17.3,21.71-24.3,21.71-3.96,0-7.57-1.74-10.83-5.22-3.26-3.48-5.86-8.22-7.8-14.24-1.95-6.01-2.92-12.73-2.92-20.16,0-6.01,1.5-12.69,4.51-20.02,3.01-7.33,6.9-14.17,11.67-20.51,4.78-6.34,9.89-11.47,15.34-15.37,5.45-3.9,10.51-5.85,15.18-5.85,3.33,0,5.94.68,7.85,2.04,1.91,1.36,2.87,3.27,2.87,5.71,0,1.88-.81,4.04-2.44,6.49,2.69.75,4.53,2,5.52,3.74.99,1.74,1.49,4.91,1.49,9.52s-.79,10.2-2.39,17.06c-1.59,6.86-3.77,13.3-6.53,19.31l1.91,2.54h1.59c1.2,0,2.39-.4,3.55-1.2,1.17-.8,2.21-1.64,3.13-2.54.92-.89,2.94-2.89,6.05-5.99ZM694.38,200.73c-5.87,4.7-10.9,8.95-15.07,12.76-4.18,3.81-7.71,7.66-10.62,11.56-2.9,3.9-4.85,7.82-5.84,11.77-1.77,10.53-2.65,16.21-2.65,17.06,0,6.2,3.25,9.3,9.76,9.3,3.04,0,8.14-3.48,15.28-10.43-1.2-4.42-1.8-8.65-1.8-12.69,0-5.92.92-11.96,2.76-18.12,1.84-6.15,4.56-13.23,8.17-21.22Z" style="fill:#fff; stroke:#3c3c3c; stroke-miterlimit:10; stroke-width:3px;"/><path d="M787.57,212.57c-12.46,18.42-18.68,31.25-18.68,38.49,0,4.04,1.24,6.06,3.71,6.06,2.05,0,4.72-1.43,8.01-4.3,3.29-2.87,8.44-7.97,15.44-15.3v9.73c-10.05,13.16-17.76,22.65-23.14,28.48-5.38,5.83-9.76,8.74-13.16,8.74-5.8,0-8.7-5.08-8.7-15.23,0-3.01.35-5.97,1.06-8.88.71-2.91,1.68-5.94,2.92-9.09,1.24-3.15,3.13-7.66,5.68-13.53,2.55-5.87,5.48-12.52,8.81-19.95-4.03,2.73-9.09,8.13-15.18,16.21-3.96,5.08-7.32,9.89-10.08,14.45-2.76,4.56-5.71,9.63-8.86,15.22-3.15,5.59-5.45,9.35-6.9,11.28-1.45,1.93-2.92,2.89-4.41,2.89-2.26,0-4.35-3.15-6.26-9.45-1.91-6.29-2.87-13.63-2.87-21.99,0-5.17.44-9.21,1.33-12.12.88-2.91,2.64-7.05,5.25-12.41,4.88-9.96,9.09-17.27,12.63-21.92,3.54-4.65,6.93-6.98,10.19-6.98,2.26,0,4.09.52,5.47,1.55,1.38,1.04,2.07,2.63,2.07,4.79,0,.94-.21,1.93-.64,2.96-.42,1.04-.9,1.97-1.43,2.82-.53.85-1.65,2.49-3.34,4.93-11.18,16.45-16.77,27.12-16.77,32,0,2.73.67,4.09,2.02,4.09.85,0,2.49-1.81,4.94-5.43,2.44-3.62,5.59-8.36,9.45-14.24,3.86-5.87,8.42-12,13.69-18.4,5.27-6.39,11.27-12.55,17.99-18.47,3.75-3.48,6.86-5.22,9.34-5.22,1.13,0,2.25,2.07,3.34,6.2,1.1,4.14,1.65,8.32,1.65,12.55,0,2.07-1.52,5.22-4.56,9.44Z" style="fill:#fff; stroke:#3c3c3c; stroke-miterlimit:10; stroke-width:3px;"/><path d="M879.8,247.54l-35.24,38.49c-9.91,22.74-18.93,39.73-27.07,50.96-8.14,11.23-14.19,16.85-18.15,16.85-2.12,0-3.18-1.74-3.18-5.22,0-6.77,2.58-15.42,7.75-25.94,2.05-4.14,4.41-8.18,7.06-12.12,2.65-3.95,5.16-7.35,7.54-10.22,2.37-2.87,5.5-6.44,9.39-10.71,3.89-4.28,6.54-7.21,7.96-8.81,7.07-19.17,12.17-33.83,15.28-43.98-6.65,9.4-12.46,17.11-17.41,23.12-4.95,6.02-9.5,10.64-13.64,13.89-4.14,3.24-7.87,4.86-11.2,4.86-3.61,0-6.94-3.83-9.98-11.49-3.04-7.66-4.56-15.53-4.56-23.61,0-3.76.65-7.71,1.96-11.84,1.31-4.13,3.36-8.55,6.16-13.25,2.79-4.7,6.35-9.52,10.67-14.45,4.32-4.93,9.38-9.75,15.18-14.45,10.97-9.12,19.49-13.67,25.58-13.67,4.53,0,6.79,2.21,6.79,6.63,0,6.11-4.92,12.08-14.75,17.9-6.01,3.48-11.98,8.08-17.88,13.82-5.91,5.73-10.68,11.82-14.33,18.26-3.64,6.44-5.47,12.24-5.47,17.41,0,2.54.46,4.56,1.38,6.06.92,1.5,2.12,2.25,3.61,2.25,2.48,0,5.31-1.5,8.49-4.51,3.18-3.01,7.89-8.32,14.12-15.93,2.83-3.48,6.6-9.09,11.3-16.85,4.71-7.75,8.6-13.67,11.68-17.76,3.08-4.09,5.85-6.13,8.33-6.13,1.41,0,2.56.59,3.45,1.76.88,1.18,1.33,2.89,1.33,5.15,0,4.32-1.29,10.6-3.87,18.82-2.58,8.23-7.24,21.69-13.96,40.39l25.69-24.81v9.16Z" style="fill:#fff; stroke:#3c3c3c; stroke-miterlimit:10; stroke-width:3px;"/><path d="M453.23,68.51c.83-.11,1.25-.16,2.08-.26-.47-3.87-.71-5.81-1.18-9.68,3.81-.47,5.72-.68,9.54-1.08-.08-.74-.11-1.11-.19-1.85-3.83.4-5.75.61-9.58,1.08l-.95-7.79c4.29-.52,6.44-.76,10.74-1.2-.08-.74-.11-1.12-.19-1.86-5.19.53-7.78.82-12.95,1.47,1.07,8.46,1.6,12.7,2.67,21.16Z"/><path d="M471.79,50.94c-.77.56-1.28,1.27-1.54,2.13-.06,0-.09,0-.15.01-.09-.99-.13-1.48-.22-2.46-.8.07-1.2.11-2,.18.6,6.37.9,9.56,1.5,15.93.8-.08,1.2-.11,2-.18-.37-4.09-.55-6.14-.92-10.23-.07-.76.06-1.47.39-2.11.33-.64.81-1.17,1.44-1.58.64-.4,1.36-.64,2.18-.71.24-.02.49-.02.73-.02.24.01.41.02.51.03-.06-.8-.1-1.21-.16-2.01-.33,0-.69.01-1.08.04-1.01.08-1.91.4-2.67.96Z"/><path d="M488.07,50.13c-1.15-.63-2.43-.91-3.85-.82-1.42.09-2.67.52-3.74,1.3s-1.86,1.81-2.38,3.1c-.52,1.29-.71,2.75-.59,4.37.12,1.61.54,3.01,1.23,4.21.7,1.2,1.61,2.11,2.75,2.73,1.14.62,2.39.88,3.76.8,1.38-.09,2.58-.51,3.62-1.26,1.04-.76,1.83-1.77,2.36-3.05.54-1.28.77-2.72.69-4.33-.08-1.62-.45-3.04-1.12-4.26-.67-1.22-1.58-2.15-2.73-2.78ZM489.46,60.56c-.34,1-.89,1.81-1.62,2.44-.74.62-1.64.97-2.7,1.03s-2-.16-2.82-.69c-.81-.53-1.46-1.26-1.93-2.21-.47-.95-.75-2.02-.84-3.2-.09-1.18.04-2.28.38-3.29.34-1.01.89-1.83,1.63-2.47.75-.64,1.67-.99,2.76-1.06s2.05.17,2.87.71c.82.54,1.46,1.29,1.91,2.25.45.96.71,2.03.77,3.22.06,1.19-.08,2.28-.42,3.28Z"/><path d="M505.21,49.1c-.85-.43-1.84-.63-2.96-.6-1.2.03-2.2.3-3,.81-.8.5-1.4,1.2-1.79,2.08-.07,0-.1,0-.17,0-.04-1.01-.06-1.51-.1-2.52-.8.03-1.21.05-2.01.08.27,6.39.4,9.59.67,15.98.8-.03,1.2-.05,2.01-.08-.15-3.97-.22-5.95-.37-9.92-.03-.91.12-1.71.47-2.4.35-.69.85-1.22,1.51-1.6.66-.38,1.41-.58,2.26-.61.84-.02,1.57.13,2.19.45.62.32,1.1.8,1.44,1.42.34.62.52,1.36.54,2.21.09,4.08.13,6.12.22,10.21.8-.02,1.2-.02,2.01-.04-.07-4.13-.11-6.19-.18-10.32-.02-1.26-.27-2.32-.75-3.2-.48-.88-1.14-1.53-1.99-1.96Z"/><path d="M516.69,62.56c-.35-.16-.63-.43-.85-.8-.21-.37-.32-.88-.32-1.52-.01-4.01-.02-6.02-.03-10.03,1.38,0,2.08,0,3.46,0,0-.68,0-1.03,0-1.71-1.39,0-2.08,0-3.47,0,0-1.53,0-2.3-.01-3.83-.84,0-1.26,0-2.1.01.01,1.53.02,2.3.03,3.83-.99,0-1.48.01-2.47.02,0,.68.01,1.03.02,1.71.98-.01,1.48-.02,2.46-.02.03,4.2.04,6.3.07,10.5,0,.83.21,1.56.61,2.16.4.61.93,1.07,1.57,1.38.64.31,1.32.47,2.04.47.61,0,1.12-.03,1.52-.1,0-.75,0-1.12,0-1.87-.45.03-.9.04-1.33.04-.45,0-.86-.08-1.21-.24Z"/><path d="M521.78,56.33c3.65.03,5.47.07,9.12.16.02-.75.03-1.12.05-1.87-3.66-.1-5.49-.13-9.16-.17,0,.75-.01,1.12-.02,1.87Z"/><path d="M545.25,49.91c-1.03-.63-2.18-.98-3.44-1.04-1.42-.07-2.7.23-3.83.89-1.13.66-2.03,1.62-2.69,2.86-.66,1.24-1.01,2.67-1.07,4.27-.05,1.61.2,3.05.76,4.31.56,1.27,1.38,2.27,2.47,3,1.09.73,2.36,1.13,3.84,1.2,1.06.05,2.03-.07,2.9-.38.87-.3,1.61-.73,2.22-1.29.61-.56,1.06-1.2,1.35-1.93-.87-.05-1.3-.08-2.17-.13-.22.37-.52.7-.91,1s-.86.53-1.42.71c-.56.18-1.19.26-1.89.22-1.08-.05-2-.34-2.79-.88-.78-.53-1.38-1.28-1.79-2.22-.38-.88-.55-1.9-.54-3.04,4.81.18,7.22.3,12.02.59.02-.38.03-.56.06-.94.1-1.73-.12-3.2-.69-4.42-.57-1.22-1.37-2.15-2.41-2.78ZM536.35,55.73c.09-.86.32-1.66.72-2.4.47-.86,1.11-1.53,1.92-2.02.81-.48,1.72-.7,2.73-.65.95.04,1.79.32,2.51.82.72.5,1.27,1.16,1.64,1.98.37.82.52,1.73.47,2.73-4-.23-6-.32-10-.47Z"/><path d="M562.4,50.94c-.8-.52-1.76-.82-2.88-.92-1.2-.1-2.22.06-3.07.48-.85.41-1.52,1.04-2.01,1.87-.07,0-.1,0-.17-.01.07-1,.11-1.51.18-2.51-.8-.06-1.2-.09-2.01-.14-.43,6.38-.65,9.58-1.08,15.96.8.05,1.2.08,2,.14.28-3.96.43-5.94.71-9.9.07-.91.31-1.69.73-2.33.42-.64.98-1.12,1.67-1.43s1.47-.43,2.31-.36c.84.07,1.55.3,2.13.69.58.39,1.01.91,1.28,1.57.27.65.37,1.41.3,2.26-.36,4.07-.54,6.1-.89,10.17.8.07,1.2.11,2,.18.38-4.11.57-6.17.95-10.28.12-1.25-.02-2.34-.39-3.26-.38-.92-.97-1.64-1.76-2.16Z"/><path d="M581.33,47.09c-.4,3.29-.6,4.94-1.01,8.23-.06,0-.09-.01-.15-.02-.24-.64-.52-1.2-.84-1.68-.32-.48-.79-.92-1.42-1.31-.62-.39-1.41-.65-2.35-.75-1.34-.15-2.57.06-3.68.63-1.11.57-2.01,1.45-2.71,2.64-.7,1.19-1.12,2.6-1.29,4.23-.16,1.62-.02,3.09.42,4.39.44,1.31,1.12,2.35,2.05,3.14.93.79,2.04,1.25,3.33,1.4.91.1,1.71.03,2.39-.22.68-.25,1.23-.56,1.64-.96.41-.39.82-.87,1.22-1.45.08.01.12.02.21.03-.14,1.15-.21,1.72-.35,2.87.79.1,1.18.15,1.97.24,1.07-8.46,1.6-12.7,2.67-21.16-.84-.11-1.27-.16-2.11-.26ZM578.79,63.61c-.5.93-1.15,1.63-1.94,2.09-.8.46-1.7.64-2.7.53-1.01-.11-1.85-.49-2.52-1.14-.67-.64-1.14-1.47-1.43-2.49-.28-1.02-.37-2.14-.24-3.37.13-1.22.43-2.29.92-3.21.49-.92,1.14-1.62,1.94-2.09.8-.47,1.73-.65,2.76-.53,1.05.12,1.91.49,2.6,1.11.68.62,1.15,1.44,1.42,2.44.26,1,.32,2.13.16,3.39-.15,1.26-.48,2.35-.98,3.28Z"/></g></svg>