<?xml version="1.0" encoding="UTF-8"?><svg id="_레이어_2" xmlns="http://www.w3.org/2000/svg" viewBox="0 0 1034.96 493.1"><g id="_레이어_1-2"><path d="M517.96,406.5C233.71,406.5,2.46,315.66,2.46,204S233.71,1.5,517.96,1.5s515.5,90.84,515.5,202.5-231.25,202.5-515.5,202.5Z" style="fill:#f7ff13;"/><path d="M517.96,3c69.63,0,137.17,5.38,200.75,15.99,61.36,10.24,116.44,24.89,163.73,43.55,47.13,18.6,84.09,40.21,109.85,64.25,26.33,24.56,39.67,50.54,39.67,77.21s-13.35,52.65-39.67,77.21c-25.76,24.03-62.72,45.65-109.85,64.25-47.28,18.66-102.37,33.31-163.73,43.55-63.58,10.61-131.12,15.99-200.75,15.99s-137.17-5.38-200.75-15.99c-61.36-10.24-116.44-24.89-163.73-43.55-47.13-18.6-84.09-40.21-109.85-64.25C17.31,256.65,3.96,230.67,3.96,204s13.35-52.65,39.67-77.21c25.76-24.03,62.72-45.65,109.85-64.25,47.28-18.66,102.37-33.31,163.73-43.55,63.58-10.61,131.12-15.99,200.75-15.99M517.96,0C232.43,0,.96,91.33.96,204s231.47,204,517,204,517-91.33,517-204S803.49,0,517.96,0h0Z" style="fill:#3c3c3c;"/><text transform="translate(167.25 266.8)" style="font-family:KunstlerScript, &apos;Kunstler Script&apos;; font-size:220px;"><tspan x="0" y="0">HwaJeong</tspan></text><text transform="translate(.96 444.04)" style="font-family:PretendardVariable-Regular, &apos;Pretendard Variable&apos;; font-size:24px; font-variation-settings:&apos;wght&apos; 400;"><tspan x="0" y="0">JOB: FRON</tspan><tspan x="119.41" y="0" style="letter-spacing:-.07em;">T</tspan><tspan x="132.4" y="0">-END</tspan></text><text transform="translate(0 486.04)" style="font-family:PretendardVariable-Regular, &apos;Pretendard Variable&apos;; font-size:24px; font-variation-settings:&apos;wght&apos; 400;"><tspan x="0" y="0">CON</tspan><tspan x="51.3" y="0" style="letter-spacing:-.08em;">T</tspan><tspan x="63.98" y="0" style="letter-spacing:-.03em;">A</tspan><tspan x="78.68" y="0">C</tspan><tspan x="95.32" y="0" style="letter-spacing:-.03em;">T</tspan><tspan x="109.2" y="0">: lhj6886@n</tspan><tspan x="238.29" y="0" style="letter-spacing:-.02em;">av</tspan><tspan x="262.9" y="0">e</tspan><tspan x="276.16" y="0" style="letter-spacing:-.06em;">r</tspan><tspan x="283.1" y="0">.com</tspan></text></g></svg>